<svg width="1920" height="1080" viewBox="0 0 1920 1080" fill="none" xmlns="http://www.w3.org/2000/svg">
  <defs>
    <linearGradient id="bg" x1="80" y1="40" x2="1840" y2="1040" gradientUnits="userSpaceOnUse">
      <stop stop-color="#06131B"/>
      <stop offset="0.44" stop-color="#075C56"/>
      <stop offset="1" stop-color="#102033"/>
    </linearGradient>
    <linearGradient id="cardA" x1="0" y1="0" x2="1" y2="1">
      <stop stop-color="#EAFDF8"/>
      <stop offset="1" stop-color="#67E8D0"/>
    </linearGradient>
    <linearGradient id="cardB" x1="0" y1="0" x2="1" y2="1">
      <stop stop-color="#F8B84E"/>
      <stop offset="1" stop-color="#F36B4F"/>
    </linearGradient>
    <filter id="shadow" x="-30%" y="-30%" width="160%" height="160%" color-interpolation-filters="sRGB">
      <feDropShadow dx="0" dy="34" stdDeviation="34" flood-color="#020812" flood-opacity="0.34"/>
    </filter>
    <filter id="soft" x="-20%" y="-20%" width="140%" height="140%" color-interpolation-filters="sRGB">
      <feGaussianBlur stdDeviation="22"/>
    </filter>
  </defs>

  <rect width="1920" height="1080" fill="url(#bg)"/>
  <circle cx="286" cy="220" r="330" fill="#68E1C6" opacity="0.16" filter="url(#soft)"/>
  <circle cx="1670" cy="780" r="420" fill="#2563EB" opacity="0.14" filter="url(#soft)"/>
  <circle cx="1010" cy="50" r="250" fill="#F8B84E" opacity="0.1" filter="url(#soft)"/>

  <g opacity="0.18">
    <path d="M80 810C264 712 374 725 520 798C726 901 826 871 992 738C1146 614 1284 624 1430 720C1577 817 1708 811 1840 705" stroke="#DDFDF6" stroke-width="2"/>
    <path d="M80 872C264 774 374 787 520 860C726 963 826 933 992 800C1146 676 1284 686 1430 782C1577 879 1708 873 1840 767" stroke="#DDFDF6" stroke-width="2"/>
  </g>

  <g transform="translate(1216 178) rotate(10)" filter="url(#shadow)">
    <rect x="0" y="0" width="382" height="704" rx="48" fill="#071A24"/>
    <rect x="28" y="38" width="326" height="628" rx="34" fill="#102A35"/>
    <rect x="56" y="92" width="270" height="154" rx="26" fill="url(#cardA)" opacity="0.96"/>
    <rect x="86" y="282" width="210" height="24" rx="12" fill="#67E8D0" opacity="0.55"/>
    <rect x="86" y="328" width="164" height="18" rx="9" fill="#EAFDF8" opacity="0.24"/>
    <rect x="86" y="372" width="210" height="18" rx="9" fill="#EAFDF8" opacity="0.18"/>
    <circle cx="192" cy="524" r="78" fill="#0F8F83" opacity="0.5"/>
    <circle cx="192" cy="524" r="42" fill="#68E1C6" opacity="0.72"/>
  </g>

  <g transform="translate(260 640) rotate(-12)" filter="url(#shadow)">
    <rect x="0" y="0" width="480" height="278" rx="30" fill="url(#cardA)"/>
    <rect x="46" y="52" width="94" height="66" rx="16" fill="#102033" opacity="0.22"/>
    <rect x="44" y="178" width="164" height="18" rx="9" fill="#102033" opacity="0.22"/>
    <rect x="240" y="178" width="68" height="18" rx="9" fill="#102033" opacity="0.16"/>
    <circle cx="384" cy="85" r="34" fill="#075C56" opacity="0.38"/>
    <circle cx="424" cy="85" r="34" fill="#F8B84E" opacity="0.76"/>
  </g>

  <g transform="translate(114 206) rotate(7)" filter="url(#shadow)" opacity="0.95">
    <rect x="0" y="0" width="408" height="236" rx="26" fill="url(#cardB)"/>
    <rect x="42" y="54" width="92" height="58" rx="14" fill="#FFFFFF" opacity="0.28"/>
    <rect x="42" y="154" width="190" height="16" rx="8" fill="#FFFFFF" opacity="0.32"/>
    <rect x="262" y="154" width="76" height="16" rx="8" fill="#FFFFFF" opacity="0.22"/>
  </g>

  <g transform="translate(1510 154)" opacity="0.48">
    <path d="M0 88C38 53 39 35 0 0" stroke="#DDFDF6" stroke-width="12" stroke-linecap="round"/>
    <path d="M54 128C112 74 112 54 54 0" stroke="#DDFDF6" stroke-width="12" stroke-linecap="round"/>
    <path d="M112 168C190 98 190 70 112 0" stroke="#DDFDF6" stroke-width="12" stroke-linecap="round"/>
  </g>

  <g transform="translate(780 760)" opacity="0.36">
    <path d="M122 0L232 45V128C232 226 156 286 122 302C88 286 12 226 12 128V45L122 0Z" fill="#EAFDF8"/>
    <path d="M76 142L111 177L174 102" stroke="#075C56" stroke-width="20" stroke-linecap="round" stroke-linejoin="round"/>
  </g>
</svg>
